<?xml version="1.0" standalone="no"?><svg xmlns="http://www.w3.org/2000/svg" viewBox="0 0 1440 320"><path fill="#0099ff" fill-opacity="1" d="M0,192L0,32L49.7,32L49.7,320L99.3,320L99.3,0L149,0L149,96L198.6,96L198.6,256L248.3,256L248.3,64L297.9,64L297.9,32L347.6,32L347.6,224L397.2,224L397.2,288L446.9,288L446.9,192L496.6,192L496.6,288L546.2,288L546.2,96L595.9,96L595.9,224L645.5,224L645.5,256L695.2,256L695.2,192L744.8,192L744.8,96L794.5,96L794.5,64L844.1,64L844.1,96L893.8,96L893.8,64L943.4,64L943.4,32L993.1,32L993.1,288L1042.8,288L1042.8,160L1092.4,160L1092.4,288L1142.1,288L1142.1,32L1191.7,32L1191.7,96L1241.4,96L1241.4,288L1291,288L1291,192L1340.7,192L1340.7,320L1390.3,320L1390.3,96L1440,96L1440,320L1390.3,320L1390.3,320L1340.7,320L1340.7,320L1291,320L1291,320L1241.4,320L1241.4,320L1191.7,320L1191.7,320L1142.1,320L1142.1,320L1092.4,320L1092.4,320L1042.8,320L1042.8,320L993.1,320L993.1,320L943.4,320L943.4,320L893.8,320L893.8,320L844.1,320L844.1,320L794.5,320L794.5,320L744.8,320L744.8,320L695.2,320L695.2,320L645.5,320L645.5,320L595.9,320L595.9,320L546.2,320L546.2,320L496.6,320L496.6,320L446.9,320L446.9,320L397.2,320L397.2,320L347.6,320L347.6,320L297.9,320L297.9,320L248.3,320L248.3,320L198.6,320L198.6,320L149,320L149,320L99.3,320L99.3,320L49.7,320L49.7,320L0,320L0,320Z"></path></svg>